<?xml version="1.0" encoding="UTF-8" standalone="no"?>
<svg width="549.275mm" height="293.158mm"
 viewBox="0 0 1557 831"
 xmlns="http://www.w3.org/2000/svg" xmlns:xlink="http://www.w3.org/1999/xlink"  version="1.2" baseProfile="tiny">
<title>Qt SVG Document</title>
<desc>MATLAB, The MathWorks, Inc. Version 25.1.0.2973910 R2025a Update 1</desc>
<defs>
</defs>
<g fill="none" stroke="black" stroke-width="1" fill-rule="evenodd" stroke-linecap="square" stroke-linejoin="bevel" >

<g fill="#ffffff" fill-opacity="1" stroke="none" transform="matrix(0.507097,0,0,0.508764,-216.552,-68.2006)"
font-family="MS Shell Dlg 2" font-size="8" font-weight="400" font-style="normal" 
>
<path vector-effect="none" fill-rule="evenodd" d="M427,134 L3498,134 L3498,1766 L427,1766 L427,134"/>
</g>

<g fill="#ffffff" fill-opacity="1" stroke="none" transform="matrix(5.07097e-05,0,0,5.08764e-05,-216.552,-68.2006)"
font-family="MS Shell Dlg 2" font-size="8" font-weight="400" font-style="normal" 
>
<path vector-effect="none" fill-rule="evenodd" d="M5e+06,1.44e+06 L5e+06,8e+06 L3.479e+07,8e+06 L3.479e+07,1.44e+06 L5e+06,1.44e+06"/>
</g>

<g fill="#212121" fill-opacity="1" stroke="#212121" stroke-opacity="1" stroke-width="1" stroke-linecap="square" stroke-linejoin="bevel" transform="matrix(0.507097,0,0,0.508764,789.529,365.266)"
font-family="Helvetica" font-size="22" font-weight="400" font-style="normal" 
>
<text fill="#212121" fill-opacity="1" stroke="none" xml:space="preserve" x="0" y="0" font-family="Helvetica" font-size="22" font-weight="400" font-style="normal" 
 >k</text>
</g>

<g fill="#212121" fill-opacity="1" stroke="#212121" stroke-opacity="1" stroke-width="1" stroke-linecap="square" stroke-linejoin="round" transform="matrix(0.507097,0,0,0.508764,-216.552,-68.2006)"
font-family="Helvetica" font-size="22" font-weight="400" font-style="normal" 
>
<polyline fill="none" vector-effect="none" points="500,800 3479,800 " />
<polyline fill="none" vector-effect="none" points="500,144 3479,144 " />
<polyline fill="none" vector-effect="none" points="500,800 500,770.21 " />
<polyline fill="none" vector-effect="none" points="500,173.79 500,144 " />
<polyline fill="none" vector-effect="none" points="996.5,800 996.5,770.21 " />
<polyline fill="none" vector-effect="none" points="996.5,173.79 996.5,144 " />
<polyline fill="none" vector-effect="none" points="1493,800 1493,770.21 " />
<polyline fill="none" vector-effect="none" points="1493,173.79 1493,144 " />
<polyline fill="none" vector-effect="none" points="1989.5,800 1989.5,770.21 " />
<polyline fill="none" vector-effect="none" points="1989.5,173.79 1989.5,144 " />
<polyline fill="none" vector-effect="none" points="2486,800 2486,770.21 " />
<polyline fill="none" vector-effect="none" points="2486,173.79 2486,144 " />
<polyline fill="none" vector-effect="none" points="2982.5,800 2982.5,770.21 " />
<polyline fill="none" vector-effect="none" points="2982.5,173.79 2982.5,144 " />
<polyline fill="none" vector-effect="none" points="3479,800 3479,770.21 " />
<polyline fill="none" vector-effect="none" points="3479,173.79 3479,144 " />
</g>

<g fill="#212121" fill-opacity="1" stroke="#212121" stroke-opacity="1" stroke-width="1" stroke-linecap="square" stroke-linejoin="bevel" transform="matrix(0.507097,0,0,0.508764,34.2078,352.547)"
font-family="Helvetica" font-size="20" font-weight="400" font-style="normal" 
>
<text fill="#212121" fill-opacity="1" stroke="none" xml:space="preserve" x="0" y="0" font-family="Helvetica" font-size="20" font-weight="400" font-style="normal" 
 >0</text>
</g>

<g fill="#212121" fill-opacity="1" stroke="#212121" stroke-opacity="1" stroke-width="1" stroke-linecap="square" stroke-linejoin="bevel" transform="matrix(0.507097,0,0,0.508764,283.193,352.547)"
font-family="Helvetica" font-size="20" font-weight="400" font-style="normal" 
>
<text fill="#212121" fill-opacity="1" stroke="none" xml:space="preserve" x="0" y="0" font-family="Helvetica" font-size="20" font-weight="400" font-style="normal" 
 >50</text>
</g>

<g fill="#212121" fill-opacity="1" stroke="#212121" stroke-opacity="1" stroke-width="1" stroke-linecap="square" stroke-linejoin="bevel" transform="matrix(0.507097,0,0,0.508764,532.177,352.547)"
font-family="Helvetica" font-size="20" font-weight="400" font-style="normal" 
>
<text fill="#212121" fill-opacity="1" stroke="none" xml:space="preserve" x="0" y="0" font-family="Helvetica" font-size="20" font-weight="400" font-style="normal" 
 >100</text>
</g>

<g fill="#212121" fill-opacity="1" stroke="#212121" stroke-opacity="1" stroke-width="1" stroke-linecap="square" stroke-linejoin="bevel" transform="matrix(0.507097,0,0,0.508764,783.951,352.547)"
font-family="Helvetica" font-size="20" font-weight="400" font-style="normal" 
>
<text fill="#212121" fill-opacity="1" stroke="none" xml:space="preserve" x="0" y="0" font-family="Helvetica" font-size="20" font-weight="400" font-style="normal" 
 >150</text>
</g>

<g fill="#212121" fill-opacity="1" stroke="#212121" stroke-opacity="1" stroke-width="1" stroke-linecap="square" stroke-linejoin="bevel" transform="matrix(0.507097,0,0,0.508764,1035.73,352.547)"
font-family="Helvetica" font-size="20" font-weight="400" font-style="normal" 
>
<text fill="#212121" fill-opacity="1" stroke="none" xml:space="preserve" x="0" y="0" font-family="Helvetica" font-size="20" font-weight="400" font-style="normal" 
 >200</text>
</g>

<g fill="#212121" fill-opacity="1" stroke="#212121" stroke-opacity="1" stroke-width="1" stroke-linecap="square" stroke-linejoin="bevel" transform="matrix(0.507097,0,0,0.508764,1287.5,352.547)"
font-family="Helvetica" font-size="20" font-weight="400" font-style="normal" 
>
<text fill="#212121" fill-opacity="1" stroke="none" xml:space="preserve" x="0" y="0" font-family="Helvetica" font-size="20" font-weight="400" font-style="normal" 
 >250</text>
</g>

<g fill="#212121" fill-opacity="1" stroke="#212121" stroke-opacity="1" stroke-width="1" stroke-linecap="square" stroke-linejoin="bevel" transform="matrix(0.507097,0,0,0.508764,1539.27,352.547)"
font-family="Helvetica" font-size="20" font-weight="400" font-style="normal" 
>
<text fill="#212121" fill-opacity="1" stroke="none" xml:space="preserve" x="0" y="0" font-family="Helvetica" font-size="20" font-weight="400" font-style="normal" 
 >300</text>
</g>

<g fill="#212121" fill-opacity="1" stroke="#212121" stroke-opacity="1" stroke-width="1" stroke-linecap="square" stroke-linejoin="bevel" transform="matrix(0,-0.508764,0.507097,0,13.1632,185.418)"
font-family="Helvetica" font-size="22" font-weight="400" font-style="normal" 
>
<text fill="#212121" fill-opacity="1" stroke="none" xml:space="preserve" x="0" y="0" font-family="Helvetica" font-size="22" font-weight="400" font-style="normal" 
 >|H(k)|</text>
</g>

<g fill="#212121" fill-opacity="1" stroke="#212121" stroke-opacity="1" stroke-width="1" stroke-linecap="square" stroke-linejoin="round" transform="matrix(0.507097,0,0,0.508764,-216.552,-68.2006)"
font-family="Helvetica" font-size="22" font-weight="400" font-style="normal" 
>
<polyline fill="none" vector-effect="none" points="500,800 500,144 " />
<polyline fill="none" vector-effect="none" points="3479,800 3479,144 " />
<polyline fill="none" vector-effect="none" points="500,800 529.79,800 " />
<polyline fill="none" vector-effect="none" points="3449.21,800 3479,800 " />
<polyline fill="none" vector-effect="none" points="500,727.111 529.79,727.111 " />
<polyline fill="none" vector-effect="none" points="3449.21,727.111 3479,727.111 " />
<polyline fill="none" vector-effect="none" points="500,654.222 529.79,654.222 " />
<polyline fill="none" vector-effect="none" points="3449.21,654.222 3479,654.222 " />
<polyline fill="none" vector-effect="none" points="500,581.333 529.79,581.333 " />
<polyline fill="none" vector-effect="none" points="3449.21,581.333 3479,581.333 " />
<polyline fill="none" vector-effect="none" points="500,508.444 529.79,508.444 " />
<polyline fill="none" vector-effect="none" points="3449.21,508.444 3479,508.444 " />
<polyline fill="none" vector-effect="none" points="500,435.556 529.79,435.556 " />
<polyline fill="none" vector-effect="none" points="3449.21,435.556 3479,435.556 " />
<polyline fill="none" vector-effect="none" points="500,362.667 529.79,362.667 " />
<polyline fill="none" vector-effect="none" points="3449.21,362.667 3479,362.667 " />
<polyline fill="none" vector-effect="none" points="500,289.778 529.79,289.778 " />
<polyline fill="none" vector-effect="none" points="3449.21,289.778 3479,289.778 " />
<polyline fill="none" vector-effect="none" points="500,216.889 529.79,216.889 " />
<polyline fill="none" vector-effect="none" points="3449.21,216.889 3479,216.889 " />
<polyline fill="none" vector-effect="none" points="500,144 529.79,144 " />
<polyline fill="none" vector-effect="none" points="3449.21,144 3479,144 " />
</g>

<g fill="#212121" fill-opacity="1" stroke="#212121" stroke-opacity="1" stroke-width="1" stroke-linecap="square" stroke-linejoin="bevel" transform="matrix(0.507097,0,0,0.508764,18.7413,342.372)"
font-family="Helvetica" font-size="20" font-weight="400" font-style="normal" 
>
<text fill="#212121" fill-opacity="1" stroke="none" xml:space="preserve" x="0" y="0" font-family="Helvetica" font-size="20" font-weight="400" font-style="normal" 
 >0.5</text>
</g>

<g fill="#212121" fill-opacity="1" stroke="#212121" stroke-opacity="1" stroke-width="1" stroke-linecap="square" stroke-linejoin="bevel" transform="matrix(0.507097,0,0,0.508764,27.362,305.289)"
font-family="Helvetica" font-size="20" font-weight="400" font-style="normal" 
>
<text fill="#212121" fill-opacity="1" stroke="none" xml:space="preserve" x="0" y="0" font-family="Helvetica" font-size="20" font-weight="400" font-style="normal" 
 >1</text>
</g>

<g fill="#212121" fill-opacity="1" stroke="#212121" stroke-opacity="1" stroke-width="1" stroke-linecap="square" stroke-linejoin="bevel" transform="matrix(0.507097,0,0,0.508764,18.7413,268.205)"
font-family="Helvetica" font-size="20" font-weight="400" font-style="normal" 
>
<text fill="#212121" fill-opacity="1" stroke="none" xml:space="preserve" x="0" y="0" font-family="Helvetica" font-size="20" font-weight="400" font-style="normal" 
 >1.5</text>
</g>

<g fill="#212121" fill-opacity="1" stroke="#212121" stroke-opacity="1" stroke-width="1" stroke-linecap="square" stroke-linejoin="bevel" transform="matrix(0.507097,0,0,0.508764,27.362,231.122)"
font-family="Helvetica" font-size="20" font-weight="400" font-style="normal" 
>
<text fill="#212121" fill-opacity="1" stroke="none" xml:space="preserve" x="0" y="0" font-family="Helvetica" font-size="20" font-weight="400" font-style="normal" 
 >2</text>
</g>

<g fill="#212121" fill-opacity="1" stroke="#212121" stroke-opacity="1" stroke-width="1" stroke-linecap="square" stroke-linejoin="bevel" transform="matrix(0.507097,0,0,0.508764,18.7413,194.039)"
font-family="Helvetica" font-size="20" font-weight="400" font-style="normal" 
>
<text fill="#212121" fill-opacity="1" stroke="none" xml:space="preserve" x="0" y="0" font-family="Helvetica" font-size="20" font-weight="400" font-style="normal" 
 >2.5</text>
</g>

<g fill="#212121" fill-opacity="1" stroke="#212121" stroke-opacity="1" stroke-width="1" stroke-linecap="square" stroke-linejoin="bevel" transform="matrix(0.507097,0,0,0.508764,27.362,156.956)"
font-family="Helvetica" font-size="20" font-weight="400" font-style="normal" 
>
<text fill="#212121" fill-opacity="1" stroke="none" xml:space="preserve" x="0" y="0" font-family="Helvetica" font-size="20" font-weight="400" font-style="normal" 
 >3</text>
</g>

<g fill="#212121" fill-opacity="1" stroke="#212121" stroke-opacity="1" stroke-width="1" stroke-linecap="square" stroke-linejoin="bevel" transform="matrix(0.507097,0,0,0.508764,18.7413,119.872)"
font-family="Helvetica" font-size="20" font-weight="400" font-style="normal" 
>
<text fill="#212121" fill-opacity="1" stroke="none" xml:space="preserve" x="0" y="0" font-family="Helvetica" font-size="20" font-weight="400" font-style="normal" 
 >3.5</text>
</g>

<g fill="#212121" fill-opacity="1" stroke="#212121" stroke-opacity="1" stroke-width="1" stroke-linecap="square" stroke-linejoin="bevel" transform="matrix(0.507097,0,0,0.508764,27.362,82.7892)"
font-family="Helvetica" font-size="20" font-weight="400" font-style="normal" 
>
<text fill="#212121" fill-opacity="1" stroke="none" xml:space="preserve" x="0" y="0" font-family="Helvetica" font-size="20" font-weight="400" font-style="normal" 
 >4</text>
</g>

<g fill="#212121" fill-opacity="1" stroke="#212121" stroke-opacity="1" stroke-width="1" stroke-linecap="square" stroke-linejoin="bevel" transform="matrix(0.507097,0,0,0.508764,18.7413,45.7059)"
font-family="Helvetica" font-size="20" font-weight="400" font-style="normal" 
>
<text fill="#212121" fill-opacity="1" stroke="none" xml:space="preserve" x="0" y="0" font-family="Helvetica" font-size="20" font-weight="400" font-style="normal" 
 >4.5</text>
</g>

<g fill="#212121" fill-opacity="1" stroke="#212121" stroke-opacity="1" stroke-width="1" stroke-linecap="square" stroke-linejoin="bevel" transform="matrix(0.507097,0,0,0.508764,27.362,8.62269)"
font-family="Helvetica" font-size="20" font-weight="400" font-style="normal" 
>
<text fill="#212121" fill-opacity="1" stroke="none" xml:space="preserve" x="0" y="0" font-family="Helvetica" font-size="20" font-weight="400" font-style="normal" 
 >5</text>
</g>

<g fill="none" stroke="#1171be" stroke-opacity="1" stroke-width="1" stroke-linecap="butt" stroke-linejoin="round" transform="matrix(0.507097,0,0,0.508764,-216.552,-68.2006)"
font-family="Helvetica" font-size="20" font-weight="400" font-style="normal" 
>
<polyline fill="none" vector-effect="none" points="509.93,144.001 519.86,147.859 529.79,159.073 539.72,176.656 549.65,199.214 559.58,225.214 569.51,253.221 579.44,282.03 589.37,310.719 599.3,338.634 609.23,365.353 619.16,390.635 629.09,414.366 639.02,436.521 648.95,457.133 658.88,476.267 668.81,494.014 678.74,510.469 688.67,525.73 698.6,539.893 708.53,553.049 718.46,565.284 728.39,576.679 738.32,587.303 748.25,597.224 758.18,606.501 768.11,615.189 778.04,623.338 787.97,630.99 797.9,638.185 807.83,644.962 817.76,651.352 827.69,657.385 837.62,663.087 847.55,668.484 857.48,673.597 867.41,678.447 877.34,683.052 887.27,687.428 897.2,691.592 907.13,695.557 917.06,699.336 926.99,702.941 936.92,706.382 946.85,709.67 956.78,712.815 966.71,715.824 976.64,718.704 986.57,721.465 996.5,724.112 1006.43,726.652 1016.36,729.09 1026.29,731.431 1036.22,733.682 1046.15,735.846 1056.08,737.928 1066.01,739.931 1075.94,741.86 1085.87,743.719 1095.8,745.51 1105.73,747.237 1115.66,748.902 1125.59,750.51 1135.52,752.061 1145.45,753.558 1155.38,755.004 1165.31,756.401 1175.24,757.751 1185.17,759.056 1195.1,760.317 1205.03,761.536 1214.96,762.716 1224.89,763.857 1234.82,764.961 1244.75,766.03 1254.68,767.063 1264.61,768.064 1274.54,769.033 1284.47,769.971 1294.4,770.879 1304.33,771.758 1314.26,772.61 1324.19,773.434 1334.12,774.232 1344.05,775.005 1353.98,775.753 1363.91,776.478 1373.84,777.179 1383.77,777.858 1393.7,778.515 1403.63,779.152 1413.56,779.767 1423.49,780.363 1433.42,780.938 1443.35,781.496 1453.28,782.034 1463.21,782.555 1473.14,783.057 1483.07,783.543 1493,784.012 1502.93,784.464 1512.86,784.901 1522.79,785.321 1532.72,785.726 1542.65,786.117 1552.58,786.492 1562.51,786.853 1572.44,787.2 1582.37,787.533 1592.3,787.852 1602.23,788.157 1612.16,788.449 1622.09,788.729 1632.02,788.996 1641.95,789.249 1651.88,789.491 1661.81,789.72 1671.74,789.937 1681.67,790.142 1691.6,790.335 1701.53,790.516 1711.46,790.686 1721.39,790.844 1731.32,790.991 1741.25,791.127 1751.18,791.251 1761.11,791.365 1771.04,791.467 1780.97,791.559 1790.9,791.639 1800.83,791.709 1810.76,791.768 1820.69,791.816 1830.62,791.853 1840.55,791.88 1850.48,791.896 1860.41,791.901 1870.34,791.896 1880.27,791.88 1890.2,791.853 1900.13,791.816 1910.06,791.768 1919.99,791.709 1929.92,791.639 1939.85,791.559 1949.78,791.467 1959.71,791.365 1969.64,791.251 1979.57,791.127 1989.5,790.991 1999.43,790.844 2009.36,790.686 2019.29,790.516 2029.22,790.335 2039.15,790.142 2049.08,789.937 2059.01,789.72 2068.94,789.491 2078.87,789.249 2088.8,788.996 2098.73,788.729 2108.66,788.449 2118.59,788.157 2128.52,787.852 2138.45,787.533 2148.38,787.2 2158.31,786.853 2168.24,786.492 2178.17,786.117 2188.1,785.726 2198.03,785.321 2207.96,784.901 2217.89,784.464 2227.82,784.012 2237.75,783.543 2247.68,783.057 2257.61,782.555 2267.54,782.034 2277.47,781.496 2287.4,780.938 2297.33,780.363 2307.26,779.767 2317.19,779.152 2327.12,778.515 2337.05,777.858 2346.98,777.179 2356.91,776.478 2366.84,775.753 2376.77,775.005 2386.7,774.232 2396.63,773.434 2406.56,772.61 2416.49,771.758 2426.42,770.879 2436.35,769.971 2446.28,769.033 2456.21,768.064 2466.14,767.063 2476.07,766.03 2486,764.961 2495.93,763.857 2505.86,762.716 2515.79,761.536 2525.72,760.317 2535.65,759.056 2545.58,757.751 2555.51,756.401 2565.44,755.004 2575.37,753.558 2585.3,752.061 2595.23,750.51 2605.16,748.902 2615.09,747.237 2625.02,745.51 2634.95,743.719 2644.88,741.86 2654.81,739.931 2664.74,737.928 2674.67,735.846 2684.6,733.682 2694.53,731.431 2704.46,729.09 2714.39,726.652 2724.32,724.112 2734.25,721.465 2744.18,718.704 2754.11,715.824 2764.04,712.815 2773.97,709.67 2783.9,706.382 2793.83,702.941 2803.76,699.336 2813.69,695.557 2823.62,691.592 2833.55,687.428 2843.48,683.052 2853.41,678.447 2863.34,673.597 2873.27,668.484 2883.2,663.087 2893.13,657.385 2903.06,651.352 2912.99,644.962 2922.92,638.185 2932.85,630.99 2942.78,623.338 2952.71,615.189 2962.64,606.501 2972.57,597.224 2982.5,587.303 2992.43,576.679 3002.36,565.284 3012.29,553.049 3022.22,539.893 3032.15,525.73 3042.08,510.469 3052.01,494.014 3061.94,476.267 3071.87,457.133 3081.8,436.521 3091.73,414.366 3101.66,390.635 3111.59,365.353 3121.52,338.634 3131.45,310.719 3141.38,282.03 3151.31,253.221 3161.24,225.214 3171.17,199.214 3181.1,176.656 3191.03,159.073 3200.96,147.859 " />
</g>

<g fill="#ffffff" fill-opacity="1" stroke="none" transform="matrix(5.07097e-05,0,0,5.08764e-05,-216.552,-68.2006)"
font-family="Helvetica" font-size="20" font-weight="400" font-style="normal" 
>
<path vector-effect="none" fill-rule="evenodd" d="M5e+06,1.055e+07 L5e+06,1.711e+07 L3.479e+07,1.711e+07 L3.479e+07,1.055e+07 L5e+06,1.055e+07"/>
</g>

<g fill="#212121" fill-opacity="1" stroke="#212121" stroke-opacity="1" stroke-width="1" stroke-linecap="square" stroke-linejoin="bevel" transform="matrix(0.507097,0,0,0.508764,789.529,828.75)"
font-family="Helvetica" font-size="22" font-weight="400" font-style="normal" 
>
<text fill="#212121" fill-opacity="1" stroke="none" xml:space="preserve" x="0" y="0" font-family="Helvetica" font-size="22" font-weight="400" font-style="normal" 
 >k</text>
</g>

<g fill="#212121" fill-opacity="1" stroke="#212121" stroke-opacity="1" stroke-width="1" stroke-linecap="square" stroke-linejoin="round" transform="matrix(0.507097,0,0,0.508764,-216.552,-68.2006)"
font-family="Helvetica" font-size="22" font-weight="400" font-style="normal" 
>
<polyline fill="none" vector-effect="none" points="500,1711 3479,1711 " />
<polyline fill="none" vector-effect="none" points="500,1055 3479,1055 " />
<polyline fill="none" vector-effect="none" points="500,1711 500,1681.21 " />
<polyline fill="none" vector-effect="none" points="500,1084.79 500,1055 " />
<polyline fill="none" vector-effect="none" points="996.5,1711 996.5,1681.21 " />
<polyline fill="none" vector-effect="none" points="996.5,1084.79 996.5,1055 " />
<polyline fill="none" vector-effect="none" points="1493,1711 1493,1681.21 " />
<polyline fill="none" vector-effect="none" points="1493,1084.79 1493,1055 " />
<polyline fill="none" vector-effect="none" points="1989.5,1711 1989.5,1681.21 " />
<polyline fill="none" vector-effect="none" points="1989.5,1084.79 1989.5,1055 " />
<polyline fill="none" vector-effect="none" points="2486,1711 2486,1681.21 " />
<polyline fill="none" vector-effect="none" points="2486,1084.79 2486,1055 " />
<polyline fill="none" vector-effect="none" points="2982.5,1711 2982.5,1681.21 " />
<polyline fill="none" vector-effect="none" points="2982.5,1084.79 2982.5,1055 " />
<polyline fill="none" vector-effect="none" points="3479,1711 3479,1681.21 " />
<polyline fill="none" vector-effect="none" points="3479,1084.79 3479,1055 " />
</g>

<g fill="#212121" fill-opacity="1" stroke="#212121" stroke-opacity="1" stroke-width="1" stroke-linecap="square" stroke-linejoin="bevel" transform="matrix(0.507097,0,0,0.508764,34.2078,816.031)"
font-family="Helvetica" font-size="20" font-weight="400" font-style="normal" 
>
<text fill="#212121" fill-opacity="1" stroke="none" xml:space="preserve" x="0" y="0" font-family="Helvetica" font-size="20" font-weight="400" font-style="normal" 
 >0</text>
</g>

<g fill="#212121" fill-opacity="1" stroke="#212121" stroke-opacity="1" stroke-width="1" stroke-linecap="square" stroke-linejoin="bevel" transform="matrix(0.507097,0,0,0.508764,283.193,816.031)"
font-family="Helvetica" font-size="20" font-weight="400" font-style="normal" 
>
<text fill="#212121" fill-opacity="1" stroke="none" xml:space="preserve" x="0" y="0" font-family="Helvetica" font-size="20" font-weight="400" font-style="normal" 
 >50</text>
</g>

<g fill="#212121" fill-opacity="1" stroke="#212121" stroke-opacity="1" stroke-width="1" stroke-linecap="square" stroke-linejoin="bevel" transform="matrix(0.507097,0,0,0.508764,532.177,816.031)"
font-family="Helvetica" font-size="20" font-weight="400" font-style="normal" 
>
<text fill="#212121" fill-opacity="1" stroke="none" xml:space="preserve" x="0" y="0" font-family="Helvetica" font-size="20" font-weight="400" font-style="normal" 
 >100</text>
</g>

<g fill="#212121" fill-opacity="1" stroke="#212121" stroke-opacity="1" stroke-width="1" stroke-linecap="square" stroke-linejoin="bevel" transform="matrix(0.507097,0,0,0.508764,783.951,816.031)"
font-family="Helvetica" font-size="20" font-weight="400" font-style="normal" 
>
<text fill="#212121" fill-opacity="1" stroke="none" xml:space="preserve" x="0" y="0" font-family="Helvetica" font-size="20" font-weight="400" font-style="normal" 
 >150</text>
</g>

<g fill="#212121" fill-opacity="1" stroke="#212121" stroke-opacity="1" stroke-width="1" stroke-linecap="square" stroke-linejoin="bevel" transform="matrix(0.507097,0,0,0.508764,1035.73,816.031)"
font-family="Helvetica" font-size="20" font-weight="400" font-style="normal" 
>
<text fill="#212121" fill-opacity="1" stroke="none" xml:space="preserve" x="0" y="0" font-family="Helvetica" font-size="20" font-weight="400" font-style="normal" 
 >200</text>
</g>

<g fill="#212121" fill-opacity="1" stroke="#212121" stroke-opacity="1" stroke-width="1" stroke-linecap="square" stroke-linejoin="bevel" transform="matrix(0.507097,0,0,0.508764,1287.5,816.031)"
font-family="Helvetica" font-size="20" font-weight="400" font-style="normal" 
>
<text fill="#212121" fill-opacity="1" stroke="none" xml:space="preserve" x="0" y="0" font-family="Helvetica" font-size="20" font-weight="400" font-style="normal" 
 >250</text>
</g>

<g fill="#212121" fill-opacity="1" stroke="#212121" stroke-opacity="1" stroke-width="1" stroke-linecap="square" stroke-linejoin="bevel" transform="matrix(0.507097,0,0,0.508764,1539.27,816.031)"
font-family="Helvetica" font-size="20" font-weight="400" font-style="normal" 
>
<text fill="#212121" fill-opacity="1" stroke="none" xml:space="preserve" x="0" y="0" font-family="Helvetica" font-size="20" font-weight="400" font-style="normal" 
 >300</text>
</g>

<g fill="#212121" fill-opacity="1" stroke="#212121" stroke-opacity="1" stroke-width="1" stroke-linecap="square" stroke-linejoin="bevel" transform="matrix(0,-0.508764,0.507097,0,9.61356,657.297)"
font-family="Helvetica" font-size="22" font-weight="400" font-style="normal" 
>
<text fill="#212121" fill-opacity="1" stroke="none" xml:space="preserve" x="0" y="0" font-family="Helvetica" font-size="22" font-weight="400" font-style="normal" 
 >arg(H(k))</text>
</g>

<g fill="#212121" fill-opacity="1" stroke="#212121" stroke-opacity="1" stroke-width="1" stroke-linecap="square" stroke-linejoin="round" transform="matrix(0.507097,0,0,0.508764,-216.552,-68.2006)"
font-family="Helvetica" font-size="22" font-weight="400" font-style="normal" 
>
<polyline fill="none" vector-effect="none" points="500,1711 500,1055 " />
<polyline fill="none" vector-effect="none" points="3479,1711 3479,1055 " />
<polyline fill="none" vector-effect="none" points="500,1711 529.79,1711 " />
<polyline fill="none" vector-effect="none" points="3449.21,1711 3479,1711 " />
<polyline fill="none" vector-effect="none" points="500,1645.4 529.79,1645.4 " />
<polyline fill="none" vector-effect="none" points="3449.21,1645.4 3479,1645.4 " />
<polyline fill="none" vector-effect="none" points="500,1579.8 529.79,1579.8 " />
<polyline fill="none" vector-effect="none" points="3449.21,1579.8 3479,1579.8 " />
<polyline fill="none" vector-effect="none" points="500,1514.2 529.79,1514.2 " />
<polyline fill="none" vector-effect="none" points="3449.21,1514.2 3479,1514.2 " />
<polyline fill="none" vector-effect="none" points="500,1448.6 529.79,1448.6 " />
<polyline fill="none" vector-effect="none" points="3449.21,1448.6 3479,1448.6 " />
<polyline fill="none" vector-effect="none" points="500,1383 529.79,1383 " />
<polyline fill="none" vector-effect="none" points="3449.21,1383 3479,1383 " />
<polyline fill="none" vector-effect="none" points="500,1317.4 529.79,1317.4 " />
<polyline fill="none" vector-effect="none" points="3449.21,1317.4 3479,1317.4 " />
<polyline fill="none" vector-effect="none" points="500,1251.8 529.79,1251.8 " />
<polyline fill="none" vector-effect="none" points="3449.21,1251.8 3479,1251.8 " />
<polyline fill="none" vector-effect="none" points="500,1186.2 529.79,1186.2 " />
<polyline fill="none" vector-effect="none" points="3449.21,1186.2 3479,1186.2 " />
<polyline fill="none" vector-effect="none" points="500,1120.6 529.79,1120.6 " />
<polyline fill="none" vector-effect="none" points="3449.21,1120.6 3479,1120.6 " />
<polyline fill="none" vector-effect="none" points="500,1055 529.79,1055 " />
<polyline fill="none" vector-effect="none" points="3449.21,1055 3479,1055 " />
</g>

<g fill="#212121" fill-opacity="1" stroke="#212121" stroke-opacity="1" stroke-width="1" stroke-linecap="square" stroke-linejoin="bevel" transform="matrix(0.507097,0,0,0.508764,23.8123,805.856)"
font-family="Helvetica" font-size="20" font-weight="400" font-style="normal" 
>
<text fill="#212121" fill-opacity="1" stroke="none" xml:space="preserve" x="0" y="0" font-family="Helvetica" font-size="20" font-weight="400" font-style="normal" 
 >-1</text>
</g>

<g fill="#212121" fill-opacity="1" stroke="#212121" stroke-opacity="1" stroke-width="1" stroke-linecap="square" stroke-linejoin="bevel" transform="matrix(0.507097,0,0,0.508764,15.1916,772.481)"
font-family="Helvetica" font-size="20" font-weight="400" font-style="normal" 
>
<text fill="#212121" fill-opacity="1" stroke="none" xml:space="preserve" x="0" y="0" font-family="Helvetica" font-size="20" font-weight="400" font-style="normal" 
 >-0.8</text>
</g>

<g fill="#212121" fill-opacity="1" stroke="#212121" stroke-opacity="1" stroke-width="1" stroke-linecap="square" stroke-linejoin="bevel" transform="matrix(0.507097,0,0,0.508764,15.1916,739.106)"
font-family="Helvetica" font-size="20" font-weight="400" font-style="normal" 
>
<text fill="#212121" fill-opacity="1" stroke="none" xml:space="preserve" x="0" y="0" font-family="Helvetica" font-size="20" font-weight="400" font-style="normal" 
 >-0.6</text>
</g>

<g fill="#212121" fill-opacity="1" stroke="#212121" stroke-opacity="1" stroke-width="1" stroke-linecap="square" stroke-linejoin="bevel" transform="matrix(0.507097,0,0,0.508764,15.1916,705.731)"
font-family="Helvetica" font-size="20" font-weight="400" font-style="normal" 
>
<text fill="#212121" fill-opacity="1" stroke="none" xml:space="preserve" x="0" y="0" font-family="Helvetica" font-size="20" font-weight="400" font-style="normal" 
 >-0.4</text>
</g>

<g fill="#212121" fill-opacity="1" stroke="#212121" stroke-opacity="1" stroke-width="1" stroke-linecap="square" stroke-linejoin="bevel" transform="matrix(0.507097,0,0,0.508764,15.1916,672.356)"
font-family="Helvetica" font-size="20" font-weight="400" font-style="normal" 
>
<text fill="#212121" fill-opacity="1" stroke="none" xml:space="preserve" x="0" y="0" font-family="Helvetica" font-size="20" font-weight="400" font-style="normal" 
 >-0.2</text>
</g>

<g fill="#212121" fill-opacity="1" stroke="#212121" stroke-opacity="1" stroke-width="1" stroke-linecap="square" stroke-linejoin="bevel" transform="matrix(0.507097,0,0,0.508764,27.362,638.981)"
font-family="Helvetica" font-size="20" font-weight="400" font-style="normal" 
>
<text fill="#212121" fill-opacity="1" stroke="none" xml:space="preserve" x="0" y="0" font-family="Helvetica" font-size="20" font-weight="400" font-style="normal" 
 >0</text>
</g>

<g fill="#212121" fill-opacity="1" stroke="#212121" stroke-opacity="1" stroke-width="1" stroke-linecap="square" stroke-linejoin="bevel" transform="matrix(0.507097,0,0,0.508764,18.7413,605.606)"
font-family="Helvetica" font-size="20" font-weight="400" font-style="normal" 
>
<text fill="#212121" fill-opacity="1" stroke="none" xml:space="preserve" x="0" y="0" font-family="Helvetica" font-size="20" font-weight="400" font-style="normal" 
 >0.2</text>
</g>

<g fill="#212121" fill-opacity="1" stroke="#212121" stroke-opacity="1" stroke-width="1" stroke-linecap="square" stroke-linejoin="bevel" transform="matrix(0.507097,0,0,0.508764,18.7413,572.231)"
font-family="Helvetica" font-size="20" font-weight="400" font-style="normal" 
>
<text fill="#212121" fill-opacity="1" stroke="none" xml:space="preserve" x="0" y="0" font-family="Helvetica" font-size="20" font-weight="400" font-style="normal" 
 >0.4</text>
</g>

<g fill="#212121" fill-opacity="1" stroke="#212121" stroke-opacity="1" stroke-width="1" stroke-linecap="square" stroke-linejoin="bevel" transform="matrix(0.507097,0,0,0.508764,18.7413,538.856)"
font-family="Helvetica" font-size="20" font-weight="400" font-style="normal" 
>
<text fill="#212121" fill-opacity="1" stroke="none" xml:space="preserve" x="0" y="0" font-family="Helvetica" font-size="20" font-weight="400" font-style="normal" 
 >0.6</text>
</g>

<g fill="#212121" fill-opacity="1" stroke="#212121" stroke-opacity="1" stroke-width="1" stroke-linecap="square" stroke-linejoin="bevel" transform="matrix(0.507097,0,0,0.508764,18.7413,505.481)"
font-family="Helvetica" font-size="20" font-weight="400" font-style="normal" 
>
<text fill="#212121" fill-opacity="1" stroke="none" xml:space="preserve" x="0" y="0" font-family="Helvetica" font-size="20" font-weight="400" font-style="normal" 
 >0.8</text>
</g>

<g fill="#212121" fill-opacity="1" stroke="#212121" stroke-opacity="1" stroke-width="1" stroke-linecap="square" stroke-linejoin="bevel" transform="matrix(0.507097,0,0,0.508764,27.362,472.107)"
font-family="Helvetica" font-size="20" font-weight="400" font-style="normal" 
>
<text fill="#212121" fill-opacity="1" stroke="none" xml:space="preserve" x="0" y="0" font-family="Helvetica" font-size="20" font-weight="400" font-style="normal" 
 >1</text>
</g>

<g fill="none" stroke="#1171be" stroke-opacity="1" stroke-width="1" stroke-linecap="butt" stroke-linejoin="round" transform="matrix(0.507097,0,0,0.508764,-216.552,-68.2006)"
font-family="Helvetica" font-size="20" font-weight="400" font-style="normal" 
>
<polyline fill="none" vector-effect="none" points="509.93,1383 519.86,1413.19 529.79,1442.67 539.72,1470.82 549.65,1497.18 559.58,1521.42 569.51,1543.42 579.44,1563.15 589.37,1580.69 599.3,1596.19 609.23,1609.81 619.16,1621.73 629.09,1632.14 639.02,1641.2 648.95,1649.05 658.88,1655.85 668.81,1661.71 678.74,1666.73 688.67,1671.02 698.6,1674.65 708.53,1677.69 718.46,1680.22 728.39,1682.28 738.32,1683.92 748.25,1685.18 758.18,1686.11 768.11,1686.73 778.04,1687.06 787.97,1687.15 797.9,1687.01 807.83,1686.65 817.76,1686.1 827.69,1685.38 837.62,1684.49 847.55,1683.45 857.48,1682.28 867.41,1680.98 877.34,1679.56 887.27,1678.03 897.2,1676.4 907.13,1674.68 917.06,1672.86 926.99,1670.97 936.92,1668.99 946.85,1666.95 956.78,1664.84 966.71,1662.66 976.64,1660.43 986.57,1658.14 996.5,1655.8 1006.43,1653.4 1016.36,1650.96 1026.29,1648.48 1036.22,1645.96 1046.15,1643.39 1056.08,1640.79 1066.01,1638.15 1075.94,1635.48 1085.87,1632.78 1095.8,1630.05 1105.73,1627.29 1115.66,1624.5 1125.59,1621.69 1135.52,1618.85 1145.45,1615.98 1155.38,1613.1 1165.31,1610.19 1175.24,1607.26 1185.17,1604.32 1195.1,1601.35 1205.03,1598.36 1214.96,1595.36 1224.89,1592.35 1234.82,1589.31 1244.75,1586.26 1254.68,1583.2 1264.61,1580.13 1274.54,1577.04 1284.47,1573.93 1294.4,1570.82 1304.33,1567.69 1314.26,1564.56 1324.19,1561.41 1334.12,1558.25 1344.05,1555.08 1353.98,1551.9 1363.91,1548.71 1373.84,1545.52 1383.77,1542.31 1393.7,1539.1 1403.63,1535.88 1413.56,1532.65 1423.49,1529.42 1433.42,1526.17 1443.35,1522.92 1453.28,1519.67 1463.21,1516.41 1473.14,1513.14 1483.07,1509.87 1493,1506.59 1502.93,1503.3 1512.86,1500.01 1522.79,1496.72 1532.72,1493.42 1542.65,1490.12 1552.58,1486.81 1562.51,1483.5 1572.44,1480.18 1582.37,1476.87 1592.3,1473.54 1602.23,1470.22 1612.16,1466.89 1622.09,1463.56 1632.02,1460.22 1641.95,1456.88 1651.88,1453.54 1661.81,1450.2 1671.74,1446.85 1681.67,1443.5 1691.6,1440.15 1701.53,1436.8 1711.46,1433.45 1721.39,1430.09 1731.32,1426.74 1741.25,1423.38 1751.18,1420.02 1761.11,1416.66 1771.04,1413.29 1780.97,1409.93 1790.9,1406.57 1800.83,1403.2 1810.76,1399.84 1820.69,1396.47 1830.62,1393.1 1840.55,1389.73 1850.48,1386.37 1860.41,1383 1870.34,1379.63 1880.27,1376.27 1890.2,1372.9 1900.13,1369.53 1910.06,1366.16 1919.99,1362.8 1929.92,1359.43 1939.85,1356.07 1949.78,1352.71 1959.71,1349.34 1969.64,1345.98 1979.57,1342.62 1989.5,1339.26 1999.43,1335.91 2009.36,1332.55 2019.29,1329.2 2029.22,1325.85 2039.15,1322.5 2049.08,1319.15 2059.01,1315.8 2068.94,1312.46 2078.87,1309.12 2088.8,1305.78 2098.73,1302.44 2108.66,1299.11 2118.59,1295.78 2128.52,1292.46 2138.45,1289.13 2148.38,1285.82 2158.31,1282.5 2168.24,1279.19 2178.17,1275.88 2188.1,1272.58 2198.03,1269.28 2207.96,1265.99 2217.89,1262.7 2227.82,1259.41 2237.75,1256.13 2247.68,1252.86 2257.61,1249.59 2267.54,1246.33 2277.47,1243.08 2287.4,1239.83 2297.33,1236.58 2307.26,1233.35 2317.19,1230.12 2327.12,1226.9 2337.05,1223.69 2346.98,1220.48 2356.91,1217.29 2366.84,1214.1 2376.77,1210.92 2386.7,1207.75 2396.63,1204.59 2406.56,1201.44 2416.49,1198.31 2426.42,1195.18 2436.35,1192.07 2446.28,1188.96 2456.21,1185.87 2466.14,1182.8 2476.07,1179.74 2486,1176.69 2495.93,1173.65 2505.86,1170.64 2515.79,1167.64 2525.72,1164.65 2535.65,1161.68 2545.58,1158.74 2555.51,1155.81 2565.44,1152.9 2575.37,1150.02 2585.3,1147.15 2595.23,1144.31 2605.16,1141.5 2615.09,1138.71 2625.02,1135.95 2634.95,1133.22 2644.88,1130.52 2654.81,1127.85 2664.74,1125.21 2674.67,1122.61 2684.6,1120.04 2694.53,1117.52 2704.46,1115.04 2714.39,1112.6 2724.32,1110.2 2734.25,1107.86 2744.18,1105.57 2754.11,1103.34 2764.04,1101.16 2773.97,1099.05 2783.9,1097.01 2793.83,1095.03 2803.76,1093.14 2813.69,1091.32 2823.62,1089.6 2833.55,1087.97 2843.48,1086.44 2853.41,1085.02 2863.34,1083.72 2873.27,1082.55 2883.2,1081.51 2893.13,1080.62 2903.06,1079.9 2912.99,1079.35 2922.92,1078.99 2932.85,1078.85 2942.78,1078.94 2952.71,1079.27 2962.64,1079.89 2972.57,1080.82 2982.5,1082.08 2992.43,1083.72 3002.36,1085.78 3012.29,1088.31 3022.22,1091.35 3032.15,1094.98 3042.08,1099.27 3052.01,1104.29 3061.94,1110.15 3071.87,1116.95 3081.8,1124.8 3091.73,1133.86 3101.66,1144.27 3111.59,1156.19 3121.52,1169.81 3131.45,1185.31 3141.38,1202.85 3151.31,1222.58 3161.24,1244.58 3171.17,1268.82 3181.1,1295.18 3191.03,1323.33 3200.96,1352.81 " />
</g>
</g>
</svg>
